<?xml version="1.0" encoding="UTF-8"?>
<svg id="Layer_2" data-name="Layer 2" xmlns="http://www.w3.org/2000/svg" viewBox="0 0 176.94 247.4">
  <defs>
    <style>
      .cls-1 {
        fill: none;
        stroke: whitesmoke;
        stroke-miterlimit: 10;
      }
    </style>
  </defs>
  <g id="Layer_1-2" data-name="Layer 1">
    <path class="cls-1" d="m159.09,31.09c1.5,0,2.34-.01,3.19,0,1.25.03,2.33.11,3.17-1.32.85-1.45,3.72-1.36,5.41-.01,2.74,2.19,4.56,5.12,5.2,8.49.72,3.79.58,7.64-1.46,11.15-6.66,11.45-10.87,23.95-15.28,36.33-1.33,3.74-2.04,7.93-1.95,11.89.18,7.83-2.9,13.79-8.7,18.65-.79.66-1.57,1.33-2.32,2.04-2.16,2.05-2.42,3.92-.42,6.17,1.47,1.66,3.36,2.94,5.14,4.46,0,0-.17.23-.4.37-4.28,2.52-5.58,6.5-3.49,11.11,1.7,3.74,3.56,7.41,5.28,11.15.37.79.48,1.7.5,2.66-2.13-1.76-3.66-4.19-6.9-4.55,5.87,7.95,8.28,16.6,6.36,26.4-1.02-1.49-1.84-2.93-2.9-4.18-1.45-1.7-2.63-1.74-3.57.26-1,2.12-1.76,4.57-1.79,6.89-.07,4.1.42,8.23.81,12.33.89,9.47-.06,19.8-2.39,28.4-1.72-3.15-3.61-6.61-5.5-10.06-.36.09-.72.19-1.08.28-1.05,5.39-.72,10.76,1.01,16.05,1.75,5.35,3.81,10.55,9.7,13.02-.11.26-.23.53-.34.79-4.18.08-8.37.14-12.55.23-4.32.1-8.22-1.2-12-3.98-.36,3.78-.69,7.14-1.01,10.5-.22.05-.43.1-.65.15-3.27-4.24-6.25-8.77-10.7-11.91-.87,3.86-1.68,7.44-2.5,11.03-3.74-7.75-9.03-13.93-16.39-18.98-1.23,4.02.5,7.29,1.43,10.96-11.58-5.36-21.52-12.39-29.32-22.34-1.97,2.97-.36,8.61,3.19,12.22-3.04.73-9.74-1.5-13.9-5.18-3.82-3.38-7.24-7.2-11.07-11.06-1.62,3.39-.69,7.13-.53,11.36-3.3-4.48-4.2-9.4-5.56-14.06-1.37-4.68-2.15-9.53-3.25-14.58-2.33,2.25-4.48,5.16-8.62,5.66,4.81-9.11,3.74-18.39,1.98-27.81-3.02.83-6.22,1.72-9.42,2.6l-.3-.71c4-3.56,6.41-8.01,7.35-13.19.31-1.71.5-3.58.13-5.24-1.56-6.94-.48-13.43,2.68-19.69.33-.65.58-1.33.93-2.14-2.07-.91-4.09-1.71-6.04-2.67-8.35-4.09-14.45-10.53-18.95-18.53-1.76-3.12-.4-5.74,3.13-6.29,2.76-.43,5.56-.64,8.32-1.07,11.04-1.74,20.11-7.45,28.05-14.86,6.01-5.61,11.35-11.93,16.92-17.99,7.51-8.17,14.35-17,23-24.08,5.3-4.34,11.5-6.39,18.24-6.99,1.32-.12,2.66-.25,3.97-.13,4.79.45,8.17-1.99,10.99-5.38,8.6-10.37,17.1-20.81,25.66-31.2,1.57-1.9,2.94-4.01,5.95-4.01,2.73,0,4.73,1.17,6.15,3.25,1.23,1.81,2.07,3.87,3.14,5.79.49.89.95,1.91,1.71,2.52,2.2,1.78,2.9,4.09,2.47,6.7-1.06,6.37-2.26,12.71-3.42,19.06-.11.58-.45,1.13-.46,1.69-.02.67.21,1.35.33,2.03.62-.12,1.4-.05,1.82-.4,1.64-1.35,3.22-2.78,4.7-4.3,1.06-1.1.9-2.17-.41-3.15-.81-.6-1.41-1.49-2.45-2.61Zm-75.32,29.92c1.97-.15,3.34-.2,4.7-.36,2.11-.25,4.24-.45,6.32-.87,3.17-.63,6.47-4.93,6.54-8.46-6.57,1.55-12.9,3.37-17.56,9.7Z"/>
  </g>
</svg>