<?xml version="1.0" encoding="UTF-8"?>
<svg id="Layer_2" data-name="Layer 2" xmlns="http://www.w3.org/2000/svg" viewBox="0 0 709.88 709.88">
  <defs>
    <style>
      .cls-1, .cls-2 {
        fill: #fff;
      }

      .cls-3 {
        fill: #ab907e;
      }

      .cls-4 {
        stroke: #ab907e;
      }

      .cls-4, .cls-5 {
        stroke-miterlimit: 10;
        stroke-width: 2px;
      }

      .cls-2 {
        font-family: Homestead-Regular, Homestead;
        font-size: 38.77px;
        letter-spacing: .2em;
      }

      .cls-5 {
        stroke: #fff;
      }
    </style>
  </defs>
  <g id="Layer_3" data-name="Layer 3">
    <g>
      <g>
        <circle class="cls-1" cx="354.94" cy="354.94" r="354.94"/>
        <path d="m354.94,697.94c-91.62,0-177.75-35.68-242.54-100.46C47.62,532.7,11.94,446.56,11.94,354.94S47.62,177.19,112.41,112.41C177.19,47.62,263.32,11.94,354.94,11.94s177.75,35.68,242.54,100.46c64.78,64.78,100.46,150.92,100.46,242.54s-35.68,177.75-100.46,242.54c-64.78,64.78-150.92,100.46-242.54,100.46Z"/>
        <path class="cls-5" d="m354.94,686c-88.43,0-171.56-34.44-234.09-96.96-62.53-62.53-96.96-145.66-96.96-234.09S58.32,183.38,120.85,120.85c62.53-62.53,145.66-96.96,234.09-96.96s171.56,34.44,234.09,96.96c62.53,62.53,96.96,145.66,96.96,234.09s-34.44,171.56-96.96,234.09c-62.53,62.53-145.66,96.96-234.09,96.96Z"/>
        <path class="cls-4" d="m354.94,638.22c-75.67,0-146.81-29.47-200.31-82.97-53.5-53.51-82.97-124.64-82.97-200.31s29.47-146.81,82.97-200.31c53.51-53.51,124.64-82.97,200.31-82.97s146.81,29.47,200.31,82.97c53.51,53.51,82.97,124.64,82.97,200.31s-29.47,146.81-82.97,200.31c-53.51,53.51-124.64,82.97-200.31,82.97Z"/>
        <path d="m354.94,625.09c-72.16,0-140-28.1-191.02-79.12-51.02-51.02-79.12-118.86-79.12-191.02s28.1-140,79.12-191.02c51.02-51.02,118.86-79.12,191.02-79.12s140,28.1,191.02,79.12c51.02,51.02,79.12,118.86,79.12,191.02s-28.1,140-79.12,191.02c-51.02,51.02-118.86,79.12-191.02,79.12Z"/>
        <g>
          <circle class="cls-3" cx="354.94" cy="46.04" r="6.71"/>
          <circle class="cls-3" cx="249.29" cy="64.67" r="6.71"/>
          <circle class="cls-3" cx="156.39" cy="118.31" r="6.71"/>
          <circle class="cls-3" cx="87.43" cy="200.49" r="6.71"/>
          <circle class="cls-3" cx="50.74" cy="301.3" r="6.71"/>
          <circle class="cls-3" cx="50.74" cy="408.58" r="6.71"/>
          <circle class="cls-3" cx="87.43" cy="509.39" r="6.71"/>
          <circle class="cls-3" cx="156.39" cy="591.57" r="6.71"/>
          <circle class="cls-3" cx="249.29" cy="645.21" r="6.71"/>
          <circle class="cls-3" cx="354.94" cy="663.84" r="6.71"/>
          <circle class="cls-3" cx="460.59" cy="645.21" r="6.71"/>
          <circle class="cls-3" cx="553.5" cy="591.57" r="6.71"/>
          <circle class="cls-3" cx="622.45" cy="509.39" r="6.71"/>
          <circle class="cls-3" cx="659.15" cy="408.58" r="6.71"/>
          <circle class="cls-3" cx="659.15" cy="301.3" r="6.71"/>
          <circle class="cls-3" cx="622.45" cy="200.49" r="6.71"/>
          <circle class="cls-3" cx="553.5" cy="118.31" r="6.71"/>
          <circle class="cls-3" cx="460.59" cy="64.67" r="6.71"/>
        </g>
      </g>
      <g>
        <g>
          <path class="cls-3" d="m126.31,258.43c0-1.19.21-3.12.62-5.79.41-2.67.95-5.35,1.6-8.02.65-2.67,1.31-5.05,1.96-7.13.65-2.08,1.22-3.12,1.69-3.12h76.66c1.31.24,2.59,1.31,3.83,3.21,1.25,1.9,1.87,3.81,1.87,5.7v34.23c0,.36-.18,1.04-.53,2.05-.36,1.01-.89,2.11-1.6,3.3-.71,1.19-1.55,2.41-2.5,3.65-.95,1.25-2.02,2.29-3.21,3.12.47.24,1.16.74,2.05,1.51.89.78,1.72,1.64,2.5,2.59.77.95,1.49,1.96,2.14,3.03.65,1.07,1.04,2.02,1.16,2.85v38.15c0,.36-.21.92-.62,1.69-.42.78-.92,1.58-1.51,2.41-.6.83-1.19,1.55-1.78,2.14-.6.6-1.07.89-1.43.89h-75.23v-86.46h-7.67Zm36.19,0v19.79h23.53v-19.79h-23.53Zm0,62.4h23.53v-19.79h-23.53v19.79Z"/>
          <path class="cls-3" d="m227.92,234.36h28.52v86.46h44.57c0,.95-.21,2.73-.62,5.35-.42,2.62-.98,5.32-1.69,8.11-.71,2.79-1.52,5.26-2.41,7.4-.89,2.14-1.82,3.21-2.76,3.21h-60.26c-.36,0-.83-.3-1.43-.89-.6-.59-1.19-1.31-1.78-2.14-.6-.83-1.1-1.63-1.51-2.41-.42-.77-.62-1.34-.62-1.69v-103.4Z"/>
          <path class="cls-3" d="m326.87,258.43c0-1.19.21-3.12.62-5.79.41-2.67.95-5.35,1.6-8.02.65-2.67,1.31-5.05,1.96-7.13.65-2.08,1.22-3.12,1.69-3.12h37.26l34.41,110.53h-28.88l-4.46-15.87h-30.48l-4.28,15.87h-28.88l26.92-86.46h-7.49Zm20.15,47.78h17.83l-8.91-30.48-8.91,30.48Z"/>
          <path class="cls-3" d="m489.81,258.43h-47.95v62.4h47.78c0,.95-.21,2.73-.62,5.35-.42,2.62-.98,5.32-1.69,8.11-.71,2.79-1.52,5.26-2.41,7.4-.89,2.14-1.81,3.21-2.76,3.21h-63.47c-.36,0-.83-.3-1.43-.89-.6-.59-1.19-1.31-1.78-2.14-.6-.83-1.1-1.63-1.51-2.41-.42-.77-.62-1.34-.62-1.69v-94.48c0-1.78.68-3.71,2.05-5.79,1.36-2.08,3.06-3.12,5.08-3.12h63.47c.47,0,1.04,1.04,1.69,3.12.65,2.08,1.31,4.46,1.96,7.13.65,2.67,1.19,5.35,1.6,8.02.41,2.67.62,4.61.62,5.79Z"/>
          <path class="cls-3" d="m501.4,344.89v-110.53h28.52v49.02l25.49-49.02h28.17l-27.63,54.37,28.52,56.16h-28.17l-26.38-50.63v50.63h-28.52Z"/>
          <path class="cls-3" d="m247.98,420.24l15.87-67.03h28.35l-27.99,110.53h-29.77l-11.59-42.07-11.59,42.07h-29.77l-27.99-110.53h28.35l15.87,67.03,16.58-67.03h17.29l16.4,67.03Z"/>
          <path class="cls-3" d="m381.06,356.42c-1.25-1.9-2.53-2.97-3.83-3.21h-70.78c-1.55.6-2.83,1.87-3.83,3.83-1.01,1.96-1.52,3.65-1.52,5.08v94.48c0,.36.21.92.62,1.69.41.77.92,1.58,1.51,2.41.59.83,1.19,1.55,1.78,2.14.59.6,1.07.89,1.43.89h71.13c.36,0,.83-.29,1.43-.89.59-.59,1.19-1.31,1.78-2.14.59-.83,1.1-1.63,1.51-2.41.42-.77.63-1.34.63-1.69v-94.48c0-1.9-.63-3.8-1.87-5.7Zm-51.43,83.25v-30.96h24.78v30.96h-24.78Z"/>
          <path d="m330.94,439.92c-2.8,0-5.05-2.39-4.8-5.18.09-1.01.15-2,.14-3-.01-1.91-.54-3.85-1.04-5.7-.74-2.74-.49-5.38.43-7.92,2.05-5.64,2.01-11.3.46-17.06-.76-2.83-1.18-5.79-2.11-8.53-.61-1.81-1.72-3.48-2.86-4.96-1.77-2.31-2.07-6.31-.35-8.63.29-.38.83-.72,1.26-.72.93.02,1.86.27,2.94.44.12.44.34,1.24.55,2.03.15-.04.3-.09.45-.13,0-.98.06-1.96-.01-2.93-.28-3.57,1.34-6.15,3.32-8.57.73-.9,1.16-.41,1.62.35,1.98,3.32,3.96,6.65,5.99,9.94.93,1.51,2.01,2.91,3,4.38,1.1,1.64,2.93,2.44,4.85,2.89.67.16,1.37.76,1.9,1.31,1.39,1.47,2.74,3.02,3.98,4.65,1.56,2.04,3.33,3.63,5.62,4.51,2.11.81,4.21,1.71,5.76,3.7.95,1.23,1.05,2.11-.06,3.11-1.48,1.33-3.11,2.48-4.74,3.56-.7.47-.85.86-.67,1.74.44,2.21.73,4.45,1.13,6.68.17.93.33,1.89.67,2.75,1.82,4.57,2.83,9.37,3.6,14.3.22,1.43,1.3,2.74,2.13,3.98.71,1.07,2.14,1.76,1.71,2.88l-34.84.15Z"/>
          <path class="cls-3" d="m397.19,353.21h28.52v86.46h44.57c0,.95-.21,2.73-.62,5.35-.42,2.62-.98,5.32-1.69,8.11-.71,2.8-1.51,5.26-2.41,7.4-.89,2.14-1.81,3.21-2.76,3.21h-60.26c-.36,0-.83-.29-1.43-.89-.6-.59-1.19-1.31-1.78-2.14-.6-.83-1.1-1.63-1.51-2.41-.42-.77-.62-1.34-.62-1.69v-103.4Z"/>
          <path class="cls-3" d="m555.5,377.28h-44.93v19.79h42.96v22.82h-42.96v43.85h-28.52v-101.62c0-1.78.68-3.71,2.05-5.79,1.36-2.08,3.06-3.12,5.08-3.12h60.43c.47,0,1.04,1.04,1.69,3.12.65,2.08,1.31,4.46,1.96,7.13.65,2.67,1.19,5.35,1.6,8.02.41,2.68.62,4.61.62,5.8Z"/>
        </g>
        <g>
          <path class="cls-1" d="m172.65,190.04c4.87-8.7,9.85-15.64,14.8-21.15,3.01,6.66,2.93,14.41-.46,21.23-2.5,4.97-6.22,12.42-11.1,22.04-3.95,7.76-8.78,16.38-13.88,25.51-17.55,31.48-39.44,70.64-56.18,126.08l-3.24,10.71-4.29-10.33c-.03-.08-.13-.31-.26-.69-.15-.36-.33-.84-.54-1.45-.18-.48-.38-1.05-.59-1.71t-.03-.05c-.18-.48-.36-1.02-.54-1.61-.1-.33-.2-.66-.31-1.02-.15-.48-.31-.99-.48-1.53-.31-1.07-.64-2.27-.99-3.55-.41-1.48-.82-3.09-1.25-4.82-.31-1.28-.61-2.6-.92-4.01-.15-.74-.31-1.51-.48-2.3-.36-1.76-.74-3.62-1.1-5.59,0-.08-.03-.15-.03-.23-1.28-6.96-2.42-15.18-3.19-24.52-.89-10.61-1.33-23.44-.69-38.24,0-.2.03-.38.03-.56.05-1.17.1-2.35.18-3.52,0-.15,0-.28.03-.43.05-1.25.13-2.5.23-3.75.15-2.45.36-4.92.56-7.45.05-.41.08-.79.13-1.2.08-.99.18-1.99.28-2.98.05-.51.1-.99.15-1.48,2.5-24.08,7.88-52.07,18.04-83.12,3.72-11.38,11.99-20.1,22.58-24.08.03,0,.08-.03.1-.03.66-.26,1.3-.46,1.96-.66.28-.1.56-.18.87-.26.31-.1.64-.2.97-.28.1-.03.23-.05.33-.08.13-.03.26-.08.41-.1.38-.08.79-.15,1.2-.23.43-.08.89-.18,1.33-.23.54-.1,1.07-.15,1.63-.2.43-.05.87-.1,1.28-.15.56-.03,1.1-.03,1.63-.05.43,0,.87-.03,1.3-.03.54,0,1.07.05,1.61.08.43.03.87.03,1.28.08.56.05,1.1.13,1.63.2.41.08.84.1,1.25.18.56.1,1.12.26,1.66.38.31.05.61.1.92.18-3.83,24.18.36,42.68.66,44.01l6.91,29.11,14.59-26.12Z"/>
          <path class="cls-1" d="m97.52,361.98c-.18-.48-.38-1.05-.59-1.71t-.03-.05c-.18-.48-.36-1.02-.54-1.61-.1-.33-.2-.66-.31-1.02-.15-.48-.31-.99-.48-1.53-.31-1.07-.64-2.27-.99-3.55-.41-1.48-.82-3.09-1.25-4.82-.31-1.28-.61-2.6-.92-4.01-.15-.74-.31-1.51-.48-2.3-.36-1.76-.74-3.62-1.1-5.59,0-.08-.03-.15-.03-.23-1.28-6.96-2.42-15.18-3.19-24.52-.89-10.61-1.33-23.44-.69-38.24,0-.2.03-.38.03-.56.05-1.17.1-2.35.18-3.52,0-.15,0-.28.03-.43.05-1.25.13-2.5.23-3.75.15-2.45.36-4.92.56-7.45.05-.41.08-.79.13-1.2.08-.99.18-1.99.28-2.98.05-.51.1-.99.15-1.48,2.5-24.08,7.88-52.07,18.04-83.12,3.72-11.38,11.99-20.1,22.58-24.08.03,0,.08-.03.1-.03.66-.26,1.3-.46,1.96-.66.28-.1.56-.18.87-.26.31-.1.64-.2.97-.28.1-.03.23-.05.33-.08.13-.03.26-.08.41-.1.38-.08.79-.15,1.2-.23.43-.08.89-.18,1.33-.23.54-.1,1.07-.15,1.63-.2.43-.05.87-.1,1.28-.15.56-.03,1.1-.03,1.63-.05.43,0,.87-.03,1.3-.03.54,0,1.07.05,1.61.08.43.03.87.03,1.28.08.56.05,1.1.13,1.63.2.41.08.84.1,1.25.18.56.1,1.12.26,1.66.38.31.05.61.1.92.18-3.83,24.18.36,42.68.66,44.01l6.91,29.11,14.59-26.12c4.87-8.7,9.85-15.64,14.8-21.15,3.01,6.66,2.93,14.41-.46,21.23-2.5,4.97-6.22,12.42-11.1,22.04-3.95,7.76-8.78,16.38-13.88,25.51-16.76,30.06-37.48,67.13-53.88,118.69-1.45,4.57-2.62,9.23-3.45,13.95l-2.08,11.82"/>
          <path class="cls-1" d="m237.14,133.38c-.66,1.79-1.99,2.81-3.88,3.5-1.61.64-3.62,1.05-6.02,1.51-8.47,1.66-23.14,4.54-38.7,18.6-1.81,1.63-3.62,3.39-5.46,5.36-5.74,6.15-11.56,13.98-17.12,23.95l-5,8.98-2.37-10c-.28-1.2-4.03-17.7-.84-39.54.38-2.5.84-5.08,1.4-7.73,3.34-15.59,10.46-33.14,24.59-49.52l.28-.31c.66-.64,6.68-6.07,13.6-5.26,2.53.28,6.15,1.56,9.06,5.94,2.09,3.14,6.58,8.39,11.3,13.98,1.25,1.48,2.45,2.88,3.57,4.21v.03c13.55,16.1,17.25,21.86,15.59,26.3Z"/>
          <path class="cls-1" d="m299.32,117.81c-.18,1.3-.59,2.73-1.17,4.23-1.12,2.98-2.98,6.35-5.31,9.85-9.85,15.05-27.65,32.68-30.28,35.26l-3.9,3.8-2.45-4.85c-.18-.31-4.11-8.06-11.1-23.32-.41-.89-1.17-2.37-2.12-4.11.51-.77.97-1.66,1.33-2.63,3.11-8.37-1.94-16.07-15.2-31.91.03-1.4.2-2.73.59-4.01,2.68-8.72,5.28-13.65,14.49-21.58,9.23-7.96,23.44-7.22,32.35,1.71,7.04,7.04,12.47,13.39,16.28,19.03v.03l5.41,10.36c1.07,3.01,1.43,5.74,1.1,8.14Z"/>
          <path class="cls-1" d="m354.93,114.09c0,2.93-1.68,7.3-4.23,12.22-7.02,13.47-20.61,31.15-24.08,35.59l-3.42,4.36-19.13-29.01c-.99-1.53-1.89-3.11-2.68-4.72-1.58-3.34-2.68-6.89-3.24-10.49.59-1.51.99-2.93,1.17-4.23.33-2.4-.03-5.13-1.1-8.14.56-4.16,1.63-7.88,3.16-11.17.97-2.24,2.19-4.26,3.62-6.07,1.56-1.96,3.14-3.8,4.64-5.41,6.71-7.14,18.01-7.53,25.23-.84,7.88,7.3,12.65,12.81,15.56,16.94,4.49,6.43,4.49,9.57,4.49,10.97Z"/>
          <path class="cls-1" d="m622.26,311.06c-2.7,32.55-9.9,51.1-10.64,52.94-.03.05-.05.1-.05.13l-4.29,10.33-3.24-10.71c-16.74-55.44-38.62-94.6-56.2-126.08-5.08-9.13-9.9-17.76-13.85-25.51-4.87-9.62-8.6-17.07-11.1-22.04-3.39-6.81-3.47-14.57-.46-21.23,4.95,5.51,9.92,12.45,14.8,21.15l14.57,26.12,6.91-29.13c.33-1.33,4.52-19.8.69-43.96.36-.08.69-.15,1.05-.26.51-.1.99-.23,1.51-.33.48-.08.97-.13,1.45-.2.46-.05.94-.13,1.43-.18s.97-.08,1.48-.1c.46-.03.94-.05,1.4-.05.48,0,.99.03,1.48.03.48.03.94.03,1.43.05.48.05.97.1,1.45.15.48.05.97.1,1.48.18.46.08.92.18,1.38.28.41.08.79.13,1.17.2.15.05.28.08.41.13.1.03.23.03.33.05.31.08.64.18.94.28.31.08.59.15.89.26.64.2,1.3.41,1.94.64.05.03.08.05.13.08,10.59,3.95,18.85,12.68,22.58,24.06,20.31,62.12,21.51,111.92,18.93,142.73Z"/>
          <path class="cls-1" d="m607.28,382.13l-1.14-6.46c-1.57-8.9-3.79-17.68-6.65-26.24-16.02-47.98-35.63-83.06-51.65-111.76-5.08-9.13-9.9-17.76-13.85-25.51-4.87-9.62-8.6-17.07-11.1-22.04-3.39-6.81-3.47-14.57-.46-21.23,4.95,5.51,9.92,12.45,14.8,21.15l14.57,26.12,6.91-29.13c.33-1.33,4.52-19.8.69-43.96.36-.08.69-.15,1.05-.26.51-.1.99-.23,1.51-.33.48-.08.97-.13,1.45-.2.46-.05.94-.13,1.43-.18s.97-.08,1.48-.1c.46-.03.94-.05,1.4-.05.48,0,.99.03,1.48.03.48.03.94.03,1.43.05.48.05.97.1,1.45.15.48.05.97.1,1.48.18.46.08.92.18,1.38.28.41.08.79.13,1.17.2.15.05.28.08.41.13.1.03.23.03.33.05.31.08.64.18.94.28.31.08.59.15.89.26.64.2,1.3.41,1.94.64.05.03.08.05.13.08,10.59,3.95,18.85,12.68,22.58,24.06,20.31,62.12,21.51,111.92,18.93,142.73-2.7,32.55-9.49,51.24-10.23,53.08"/>
          <path class="cls-1" d="m551.29,185.27l-2.37,10-5-8.98c-5.56-9.97-11.38-17.81-17.12-23.95-1.84-1.96-3.65-3.72-5.46-5.36-15.56-14.06-30.23-16.94-38.7-18.6-2.4-.46-4.41-.87-6.02-1.51-1.89-.69-3.21-1.71-3.88-3.5-1.68-4.46,2.04-10.2,15.59-26.33v-.03c1.12-1.33,2.3-2.73,3.55-4.18,4.75-5.59,9.23-10.84,11.3-13.98,2.93-4.39,6.56-5.66,9.08-5.94,6.91-.82,12.93,4.62,13.6,5.26l.28.31c14.13,16.35,21.25,33.9,24.59,49.49.56,2.65,1.02,5.26,1.4,7.76,3.19,21.84-.56,38.34-.84,39.54Z"/>
          <path class="cls-1" d="m465.57,136.06c.36.97.79,1.86,1.3,2.63-.92,1.73-1.68,3.21-2.09,4.11-6.99,15.26-10.92,23.01-11.1,23.32l-2.45,4.85-3.9-3.8c-2.63-2.58-20.41-20.2-30.28-35.23-2.32-3.5-4.18-6.86-5.31-9.87-.61-1.51-.99-2.93-1.17-4.23-.33-2.42.03-5.15,1.07-8.19t0-.05c1.07-3.11,2.88-6.51,5.43-10.26,3.78-5.64,9.23-12.02,16.28-19.06,8.9-8.93,23.11-9.67,32.35-1.71,9.21,7.93,11.81,12.86,14.49,21.58.38,1.25.56,2.6.59,3.98-13.27,15.87-18.34,23.57-15.2,31.94Z"/>
          <path class="cls-1" d="m411.74,122.05c-.56,3.6-1.68,7.14-3.27,10.51-.77,1.61-1.66,3.19-2.65,4.69l-19.16,29.01-3.42-4.36c-3.47-4.44-17.04-22.12-24.08-35.59-2.55-4.92-4.23-9.29-4.23-12.22,0-1.4,0-4.54,4.49-10.97,2.93-4.13,7.7-9.64,15.59-16.94,3.44-3.19,7.83-4.77,12.19-4.77,4.77,0,9.52,1.89,13.01,5.61,1.53,1.61,3.09,3.44,4.67,5.41,1.43,1.81,2.65,3.85,3.62,6.07,1.53,3.27,2.58,6.96,3.14,11.07t0,.05c-1.05,3.04-1.4,5.77-1.07,8.19.18,1.3.56,2.73,1.17,4.23Z"/>
        </g>
        <g>
          <path class="cls-1" d="m201.67,532.39c-5.75,30.62-4.96,53.04-1.22,69.38-8.25,15.45-14.85,24.49-22.3,24.49-.35,0-.7,0-1.05-.05l-1.74-.2-1.07-1.4c-.77-1.02-19.21-25.46-34.98-62.13-14.65-33.98-29.47-85.15-16.96-135.79l2.39-9.77,5.11,8.64c.47.8,39.83,67.09,72.42,103.58l-.6,3.24Z"/>
          <path class="cls-1" d="m124.76,400.58l1.58,7.75c2.39,11.72,6.85,22.9,13.19,33.05,13.78,22.06,39.92,62.22,62.74,87.78l-.6,3.24c-5.75,30.62-4.96,53.04-1.22,69.38-8.25,15.45-14.85,24.49-22.3,24.49-.35,0-.7,0-1.05-.05l-1.74-.2-1.07-1.4c-.77-1.02-19.21-25.46-34.98-62.13-13.73-31.86-27.62-78.82-19-126.29"/>
          <path class="cls-1" d="m260.86,607.27c.05,7.7-.87,16.91-7.03,23.07-4.31,4.31-10.59,6.5-18.66,6.5-.72,0-1.44-.02-2.19-.05l-.72-.05-.67-.27c-1.02-.42-16.19-7.25-23.14-33.83-.95-3.59-1.74-7.55-2.32-11.91-1.87-13.9-1.64-31.81,2.49-54.81.12-.7.27-1.42.4-2.14l1.3-6.95.8-4.26,5.53,9.96s.4.7,1.05,1.84c2.32,4.01,8.22,13.98,14.47,22.02,2.24,2.89,4.51,5.53,6.68,7.55l.12.1c7,6.55,13.75,12.88,17.76,19.9v.02c2.37,4.09,3.79,8.42,3.79,13.18,0,1.25.07,2.77.15,4.36.1,1.74.17,3.69.2,5.75Z"/>
          <path class="cls-1" d="m354.95,614.52c-1.47,3.01-3.09,5.53-4.46,7.45-.65.9-1.25,1.64-1.74,2.27-1.84,2.24-4.58,3.56-7.5,3.64h-1.37c-1.79,0-4.19-.05-6.93-.27-6.25-.47-11.19-4.56-14.75-12.18v-.02c-1.89-4.04-3.39-9.04-4.48-15.05.22-1.42.45-2.89.67-4.41.2-1.27.4-2.57.6-3.91.32-2.17.45-4.36.37-6.55.82-1.74,1.82-3.49,2.99-5.31l3.06-5.56,12.38-22.42,3.86,4.04c.47.47,7.17,7.52,12.95,16.89,1.54,2.52,3.04,5.18,4.33,7.97v.02c1.92,4.14,3.36,8.47,3.86,12.7.95,7.95-1.17,15.15-3.86,20.7Z"/>
          <path class="cls-1" d="m315.37,585.48c.07,2.19-.05,4.38-.37,6.55-.2,1.35-.4,2.64-.6,3.91-.22,1.52-.45,2.99-.67,4.41-.92,5.93-1.89,11.16-3.49,15.45-1.47,3.91-3.49,7.05-6.43,9.17-2.52,1.82-5.56,2.74-9.09,2.74-1.27,0-2.62-.12-4.04-.37-3.41-.57-6.53-2.47-8.77-5.28-.95-1.17-2.22-2.62-3.54-4.16-3.26-3.76-7.07-8.17-10.09-12.78v-.02c-3.64-5.61-6.08-11.53-4.88-17.06.35-1.59.82-3.16,1.4-4.73,3.66-10.01,11.19-18.98,12.13-20.1,5.53-6.43,12.73-20.9,12.8-21.05l2.86-5.78,4.04,5.03c.65.82,12.16,15.47,16.82,32.24,1.1,3.89,1.79,7.9,1.92,11.86Z"/>
          <path class="cls-1" d="m570.56,562.48c-15.79,36.67-34.2,61.11-35,62.13l-1.05,1.4-1.77.2c-.35.05-.67.05-1.02.05-7.45,0-14.05-9.04-22.3-24.46,3.74-16.32,4.53-38.76-1.22-69.4l-.6-3.24v-.02c32.58-36.5,71.94-102.76,72.39-103.56l5.13-8.64,2.39,9.77c12.51,50.64-2.32,101.81-16.96,135.79Z"/>
          <path class="cls-1" d="m589.21,434.3c9.34,48.12-4.73,95.9-18.64,128.18-15.79,36.67-34.2,61.11-35,62.13l-1.05,1.4-1.77.2c-.35.05-.67.05-1.02.05-7.45,0-14.05-9.04-22.3-24.46,3.74-16.32,4.53-38.76-1.22-69.4l-.6-3.24v-.02c20.44-22.9,43.56-57.52,58.05-80.33,9.37-14.75,15.96-31.1,19.49-48.22h0"/>
          <path class="cls-1" d="m503.75,590.76c-.57,4.36-1.37,8.32-2.32,11.91-6.95,26.58-22.12,33.38-23.14,33.8l-.67.27-.72.05c-.75.02-1.49.05-2.19.05-8.07,0-14.35-2.19-18.66-6.5-6.15-6.15-7.1-15.35-7.03-23.04v-.02c.02-2.07.1-3.99.2-5.75.07-1.59.15-3.11.15-4.36,0-4.76,1.42-9.09,3.79-13.18v-.02c4.01-7.03,10.76-13.35,17.76-19.9l.1-.1c2.19-2.04,4.46-4.68,6.7-7.55,6.25-8.07,12.16-18.04,14.5-22.05.65-1.12,1-1.77,1.02-1.82l5.53-9.96.8,4.31,1.3,6.9c.12.72.27,1.44.4,2.14,4.14,23.02,4.36,40.93,2.49,54.83Z"/>
          <path class="cls-1" d="m441.6,605.08c-2.99,4.61-6.8,9.04-10.09,12.8-1.32,1.54-2.59,2.99-3.54,4.16-2.24,2.82-5.36,4.71-8.77,5.28-1.42.25-2.77.37-4.04.37-3.54,0-6.58-.92-9.09-2.74-2.96-2.12-4.96-5.26-6.43-9.17-1.59-4.26-2.57-9.49-3.49-15.37-.22-1.44-.47-2.94-.7-4.48-.17-1.27-.37-2.59-.57-3.91-.32-2.17-.45-4.36-.37-6.55.12-3.96.82-7.97,1.92-11.86,4.66-16.77,16.17-31.41,16.82-32.24l4.01-5.03,2.89,5.78c.07.15,7.27,14.62,12.78,21.05.97,1.12,8.49,10.09,12.16,20.1.57,1.57,1.05,3.14,1.4,4.73,1.2,5.53-1.25,11.46-4.88,17.06Z"/>
          <path class="cls-1" d="m396.16,600.42c-1.1,5.98-2.62,11.01-4.51,15.02-3.54,7.62-8.47,11.68-14.75,12.16-2.72.22-5.11.27-6.9.27h-1.4c-2.91-.07-5.63-1.4-7.47-3.64-.5-.62-1.1-1.37-1.74-2.27-1.37-1.92-2.99-4.43-4.43-7.45,2.69-5.56,4.81-12.75,3.86-20.7-.5-4.23-1.94-8.57-3.86-12.7v-.02c1.27-2.77,2.77-5.43,4.31-7.95v-.02c5.78-9.37,12.48-16.42,12.95-16.89l3.86-4.04,12.38,22.45,3.06,5.53c1.17,1.82,2.17,3.56,2.99,5.31-.07,2.19.05,4.38.37,6.55.2,1.32.4,2.64.57,3.91.22,1.54.47,3.04.7,4.48Z"/>
        </g>
        <text class="cls-2" transform="translate(230.15 506.09)"><tspan x="0" y="0">SECURITY</tspan></text>
      </g>
    </g>
  </g>
</svg>